<svg width="160" height="40" viewBox="0 0 160 40" fill="none" xmlns="http://www.w3.org/2000/svg">
  <!-- Payroll text -->
  <path d="M0.5 29.5V2.5h15c4.4 0 7.9 1.1 10.5 3.3c2.6 2.2 3.9 5.2 3.9 9c0 3.8-1.3 6.8-3.9 9c-2.6 2.2-6.1 3.3-10.5 3.3H8.5v2.4H0.5zm8-9.6h7c2.2 0 3.9-0.5 5.1-1.6c1.2-1.1 1.8-2.6 1.8-4.4c0-1.8-0.6-3.3-1.8-4.4c-1.2-1.1-2.9-1.6-5.1-1.6h-7v12z" fill="#3D1CBA"/>
  <path d="M37.5 29.5V2.5h8v27h-8z" fill="#3D1CBA"/>
  <path d="M54.5 29.5V2.5h7l15 18.5V2.5h8v27h-7l-15-18.5v18.5h-8z" fill="#3D1CBA"/>
  <path d="M92.5 29.5V2.5h15c4.4 0 7.9 1.1 10.5 3.3c2.6 2.2 3.9 5.2 3.9 9c0 3.8-1.3 6.8-3.9 9c-2.6 2.2-6.1 3.3-10.5 3.3h-7v2.4h-8zm8-9.6h7c2.2 0 3.9-0.5 5.1-1.6c1.2-1.1 1.8-2.6 1.8-4.4c0-1.8-0.6-3.3-1.8-4.4c-1.2-1.1-2.9-1.6-5.1-1.6h-7v12z" fill="#3D1CBA"/>
  <!-- Asterisk symbol -->
  <path d="M140 8l4 4l4-4l4 4l-4 4l4 4l-4 4l-4-4l-4 4l-4-4l4-4l-4-4l4-4z" fill="#FF7B7B"/>
</svg> 