<svg width="214" height="49" viewBox="0 0 214 49" fill="none" xmlns="http://www.w3.org/2000/svg">
<path d="M10.6023 13.248C11.4663 12.032 12.6503 11.024 14.1543 10.224C15.6903 9.392 17.4343 8.976 19.3863 8.976C21.6583 8.976 23.7063 9.536 25.5303 10.656C27.3863 11.776 28.8423 13.376 29.8983 15.456C30.9863 17.504 31.5303 19.888 31.5303 22.608C31.5303 25.328 30.9863 27.744 29.8983 29.856C28.8423 31.936 27.3863 33.552 25.5303 34.704C23.7063 35.856 21.6583 36.432 19.3863 36.432C17.4343 36.432 15.7063 36.032 14.2023 35.232C12.7303 34.432 11.5303 33.424 10.6023 32.208V48.672H3.88231V9.408H10.6023V13.248ZM24.6663 22.608C24.6663 21.008 24.3303 19.632 23.6583 18.48C23.0183 17.296 22.1543 16.4 21.0663 15.792C20.0103 15.184 18.8583 14.88 17.6103 14.88C16.3943 14.88 15.2423 15.2 14.1543 15.84C13.0983 16.448 12.2343 17.344 11.5623 18.528C10.9223 19.712 10.6023 21.104 10.6023 22.704C10.6023 24.304 10.9223 25.696 11.5623 26.88C12.2343 28.064 13.0983 28.976 14.1543 29.616C15.2423 30.224 16.3943 30.528 17.6103 30.528C18.8583 30.528 20.0103 30.208 21.0663 29.568C22.1543 28.928 23.0183 28.016 23.6583 26.832C24.3303 25.648 24.6663 24.24 24.6663 22.608ZM34.6856 22.608C34.6856 19.92 35.2136 17.536 36.2696 15.456C37.3576 13.376 38.8136 11.776 40.6376 10.656C42.4936 9.536 44.5576 8.976 46.8296 8.976C48.8136 8.976 50.5416 9.376 52.0136 10.176C53.5176 10.976 54.7176 11.984 55.6136 13.2V9.408H62.3816V36H55.6136V32.112C54.7496 33.36 53.5496 34.4 52.0136 35.232C50.5096 36.032 48.7656 36.432 46.7816 36.432C44.5416 36.432 42.4936 35.856 40.6376 34.704C38.8136 33.552 37.3576 31.936 36.2696 29.856C35.2136 27.744 34.6856 25.328 34.6856 22.608ZM55.6136 22.704C55.6136 21.072 55.2936 19.68 54.6536 18.528C54.0136 17.344 53.1496 16.448 52.0616 15.84C50.9736 15.2 49.8056 14.88 48.5576 14.88C47.3096 14.88 46.1576 15.184 45.1016 15.792C44.0456 16.4 43.1816 17.296 42.5096 18.48C41.8696 19.632 41.5496 21.008 41.5496 22.608C41.5496 24.208 41.8696 25.616 42.5096 26.832C43.1816 28.016 44.0456 28.928 45.1016 29.568C46.1896 30.208 47.3416 30.528 48.5576 30.528C49.8056 30.528 50.9736 30.224 52.0616 29.616C53.1496 28.976 54.0136 28.08 54.6536 26.928C55.2936 25.744 55.6136 24.336 55.6136 22.704ZM94.3848 9.408L77.9208 48.576H70.7688L76.5288 35.328L65.8728 9.408H73.4088L80.2728 27.984L87.2328 9.408H94.3848ZM104.727 13.536C105.591 12.128 106.711 11.024 108.087 10.224C109.495 9.424 111.095 9.024 112.887 9.024V16.08H111.111C108.999 16.08 107.399 16.576 106.311 17.568C105.255 18.56 104.727 20.288 104.727 22.752V36H98.0073V9.408H104.727V13.536ZM129.222 36.432C126.662 36.432 124.358 35.872 122.31 34.752C120.262 33.6 118.646 31.984 117.462 29.904C116.31 27.824 115.734 25.424 115.734 22.704C115.734 19.984 116.326 17.584 117.51 15.504C118.726 13.424 120.374 11.824 122.454 10.704C124.534 9.552 126.854 8.976 129.414 8.976C131.974 8.976 134.294 9.552 136.374 10.704C138.454 11.824 140.086 13.424 141.27 15.504C142.486 17.584 143.094 19.984 143.094 22.704C143.094 25.424 142.47 27.824 141.222 29.904C140.006 31.984 138.342 33.6 136.23 34.752C134.15 35.872 131.814 36.432 129.222 36.432ZM129.222 30.576C130.438 30.576 131.574 30.288 132.63 29.712C133.718 29.104 134.582 28.208 135.222 27.024C135.862 25.84 136.182 24.4 136.182 22.704C136.182 20.176 135.51 18.24 134.166 16.896C132.854 15.52 131.238 14.832 129.318 14.832C127.398 14.832 125.782 15.52 124.47 16.896C123.19 18.24 122.55 20.176 122.55 22.704C122.55 25.232 123.174 27.184 124.422 28.56C125.702 29.904 127.302 30.576 129.222 30.576ZM154.743 0.48V36H148.023V0.48H154.743ZM168.102 0.48V36H161.382V0.48H168.102Z" fill="#0C017B"/>
<path d="M196.724 16.7051H196.79C197.312 16.7058 197.831 16.6433 198.338 16.5191L212.054 13.1951L209.318 8.09508L197.018 11.0951C196.849 11.1401 196.671 11.1364 196.504 11.0844C196.338 11.0323 196.189 10.9341 196.076 10.8011C195.957 10.6752 195.876 10.5181 195.843 10.3481C195.811 10.1781 195.827 10.0022 195.89 9.84108L198.782 1.70508H192.83L190.61 7.89708C190.251 8.88433 190.134 9.94337 190.269 10.9852C190.404 12.0271 190.787 13.0213 191.386 13.8843C191.985 14.7473 192.783 15.4539 193.712 15.9448C194.64 16.4356 195.673 16.6964 196.724 16.7051Z" fill="#F26A60"/>
<path d="M192.92 18.9073C192.912 18.8881 192.902 18.8699 192.89 18.8533C192.629 18.4013 192.315 17.9823 191.954 17.6053L182.222 7.40527L179.168 12.3193L187.898 21.4813C188.018 21.6066 188.101 21.762 188.14 21.931C188.179 22.1 188.171 22.2763 188.117 22.4412C188.064 22.6061 187.967 22.7534 187.836 22.8675C187.706 22.9816 187.547 23.0582 187.376 23.0893L178.946 24.6133L181.946 29.7673L188.42 28.5673C189.449 28.3792 190.419 27.9477 191.248 27.3088C192.076 26.6699 192.74 25.8421 193.184 24.8945C193.628 23.9469 193.839 22.9069 193.799 21.8612C193.76 20.8155 193.47 19.7945 192.956 18.8833" fill="#F26A60"/>
<path d="M196.76 21.0852C196.748 21.1019 196.738 21.12 196.73 21.1392C196.474 21.5919 196.273 22.0733 196.13 22.5732L192.146 36.1152L197.93 36.2952L201.5 24.1512C201.545 23.9835 201.636 23.8319 201.764 23.714C201.891 23.5961 202.049 23.5168 202.22 23.4852C202.389 23.4461 202.566 23.4551 202.73 23.5113C202.895 23.5676 203.04 23.6687 203.15 23.8032L208.706 30.3552L211.676 25.1952L207.422 20.1792C206.745 19.3824 205.887 18.7589 204.92 18.3606C203.954 17.9623 202.906 17.8007 201.864 17.8893C200.822 17.978 199.816 18.3142 198.93 18.8701C198.045 19.426 197.305 20.1855 196.772 21.0852" fill="#F26A60"/>
</svg>
